<svg xmlns="http://www.w3.org/2000/svg" version="1.1" xmlnsXlink="http://www.w3.org/1999/xlink" xmlnssvgjs="http://svgjs.dev/svgjs" width="2000" height="1212" viewBox="0 0 2000 1212"><g transform="matrix(1,0,0,1,-1.2121212121212466,-0.1292799999999943)"><svg viewBox="0 0 396 240" data-background-color="#282634" preserveAspectRatio="xMidYMid meet" height="1212" width="2000" xmlns="http://www.w3.org/2000/svg" xmlnsXlink="http://www.w3.org/1999/xlink"><g id="tight-bounds" transform="matrix(1,0,0,1,0.2400000000000091,0.02559999999999718)"><svg viewBox="0 0 395.52 239.9488" height="239.9488" width="395.52"><g><svg viewBox="0 0 395.52 239.9488" height="239.9488" width="395.52"><g><svg viewBox="0 0 395.52 239.9488" height="239.9488" width="395.52"><g id="textblocktransform"><svg viewBox="0 0 395.52 239.9488" height="239.9488" width="395.52" id="textblock"><g><svg viewBox="0 0 395.52 239.9488" height="239.9488" width="395.52"><g transform="matrix(1,0,0,1,0,0)"><svg width="395.52" viewBox="0 -29.5 75 45.5" height="239.9488" data-palette-color="#ff4057"><path d="M1.5 0L0 0 0-29.5 1.5-29.5 1.5 0ZM9 0L7.5 0 7.5-29.5 9-29.5 9 0ZM15 0L10.5 0 10.5-29.5 15-29.5 15 0ZM18 0L16.5 0 16.5-29.5 18-29.5 18 0ZM24 0L19.5 0 19.5-29.5 24-29.5 24 0ZM8.85 15.95L12 10.05 8.9 4.35 10.3 4.35 12.75 8.75 15.15 4.35 16.45 4.35 13.5 10 16.8 15.95 15.35 15.95 12.75 11.35 10.25 15.95 8.85 15.95ZM30 0L25.5 0 25.5-29.5 30-29.5 30 0ZM33 0L31.5 0 31.5-29.5 33-29.5 33 0ZM36 0L34.5 0 34.5-29.5 36-29.5 36 0ZM39 0L37.5 0 37.5-29.5 39-29.5 39 0ZM49.5 0L45 0 45-29.5 49.5-29.5 49.5 0ZM40.7 16L36.7 10.15 35.75 11.15 35.75 15.95 34.4 15.95 34.4 4.35 35.95 4.35 35.95 4.5Q35.85 4.6 35.8 4.75L35.8 4.75Q35.75 4.85 35.75 5.2L35.75 5.2 35.75 9.7 40.6 4.3Q41.05 4.35 41.55 4.35L41.55 4.35 42.05 4.35 37.65 9.35 42.35 15.95 40.7 16ZM52.5 0L51 0 51-29.5 52.5-29.5 52.5 0ZM58.5 0L54 0 54-29.5 58.5-29.5 58.5 0ZM64.5 0L60 0 60-29.5 64.5-29.5 64.5 0ZM67.5 0L66 0 66-29.5 67.5-29.5 67.5 0ZM75 0L73.5 0 73.5-29.5 75-29.5 75 0ZM60.2 15.95L60.2 4.35 63.9 4.35Q65.75 4.35 66.65 5.3L66.65 5.3Q67.59 6.2 67.59 7.65L67.59 7.65Q67.59 9.05 66.7 9.95L66.7 9.95Q65.8 10.85 64 10.85L64 10.85 61.55 10.85 61.55 15.95 60.2 15.95ZM61.55 9.7L63.85 9.7Q65.09 9.7 65.65 9.15L65.65 9.15Q66.25 8.65 66.25 7.7L66.25 7.7Q66.25 6.75 65.65 6.2L65.65 6.2Q65.05 5.6 63.9 5.6L63.9 5.6 61.55 5.6 61.55 9.7Z" opacity="1" transform="matrix(1,0,0,1,0,0)" fill="#ff4057" class="wordmark-text-0" data-fill-palette-color="primary" id="text-0"></path></svg></g></svg></g></svg></g></svg></g><g></g></svg></g><defs></defs></svg><rect width="395.52" height="239.9488" fill="none" stroke="none" visibility="hidden"></rect></g></svg></g></svg>